# xmcd
#
# Track frame offsets:
#	150
#	17046
#	37886
#	54383
#	62242
#	73901
#	86602
#	97952
#	115794
#	133178
#	141866
#	151479
#	160826
#	179010
#
# Disc length: 2584 seconds
#
# Revision: 1
# Processed by: cddbd v1.5.2PL0 Copyright (c) Steve Scherf et al.
# Submitted via: audiograbber 1.83.01
#
DISCID=c10a160e
DTITLE=Hokum hi-flyers - The Original Hokum Hi-flyers
DYEAR=1900
DGENRE=Banjo
TTITLE0=Milwaukee blues
TTITLE1=Hokum hi-flyers from idaho
TTITLE2=Texas bells - Cindy
TTITLE3=Carroll county blues
TTITLE4=bob-tailed mule
TTITLE5=lazy john
TTITLE6=buffalo gals
TTITLE7=chittlin cook time in cheatham county
TTITLE8=train that carried my girl from town
TTITLE9=sally anne
TTITLE10=yew piney mountain
TTITLE11=Growling old man and cackling old woman - drowsy maggie
TTITLE12=liza jane
TTITLE13=orvetta - old mediera walts
EXTD=
EXTT0=
EXTT1=
EXTT2=
EXTT3=
EXTT4=
EXTT5=
EXTT6=
EXTT7=
EXTT8=
EXTT9=
EXTT10=
EXTT11=
EXTT12=
EXTT13=
PLAYORDER=
